<svg id="圖層_1" data-name="圖層 1" xmlns="http://www.w3.org/2000/svg" viewBox="0 0 133.5 49.62"><defs><style>.cls-1{fill:#fff;}</style></defs><path class="cls-1" d="M62.24,32.77c0,.29-.38.71-1.13,1.27a28.29,28.29,0,0,0-2.75,2.47c-1.08,1.08-1.9,2-2.47,2.61A4.42,4.42,0,0,1,52.44,41q-3.31,0-8.32-5.85a14.81,14.81,0,0,0-2-2,3.47,3.47,0,0,0-1.62-1,.86.86,0,0,0-.74.49A6.94,6.94,0,0,0,39.33,35c-.09,1.24-.14,2.92-.14,5l.07,5.56A6.13,6.13,0,0,1,39,47.82a1.67,1.67,0,0,1-1.12.81,4.89,4.89,0,0,1-1.24.29,1.31,1.31,0,0,1-.81-.46,2,2,0,0,0-1.16-.57c-.47-.07-1.79-.1-3.95-.1s-4.37.07-6.62.21a42.59,42.59,0,0,0-4.69.46,4.34,4.34,0,0,0-1.87.7c-.38.31-.63.46-.78.46s-.31-.22-.52-.67a6.53,6.53,0,0,1-.32-2.47c0-1.19.11-2.79.32-4.79a40,40,0,0,1,.67-4.54,12.54,12.54,0,0,0,.35-2.61A5.72,5.72,0,0,0,17,32.6c-.21-.59-.48-.88-.81-.88a7.7,7.7,0,0,0-2.54,1.55q-8.1,6-10.85,6C.92,39.26,0,38.57,0,37.18a4.17,4.17,0,0,1,.6-2.71,6.14,6.14,0,0,1,2.92-1.13,26.94,26.94,0,0,0,5.64-2.05,37.54,37.54,0,0,0,6.38-3.8,66.67,66.67,0,0,0,6-4.94,20,20,0,0,0,3.24-3.41,3.21,3.21,0,0,0,.35-1.31c0-.37-.3-.56-.91-.56a17.28,17.28,0,0,0-2.93.39,27.24,27.24,0,0,0-4.05,1.12,10.11,10.11,0,0,1-3.24.74q-1.2,0-1.2-1.83a1.87,1.87,0,0,1,.31-1.13,1,1,0,0,1,.78-.45c.3,0,.61,0,.92,0A3.82,3.82,0,0,0,16,15.79a35.86,35.86,0,0,1,6.91-1.38,70.93,70.93,0,0,1,8.67-.6A57.79,57.79,0,0,1,38,14.1a18.27,18.27,0,0,1,3.17.53c.47.16.71.41.71.74s-.32.7-.95,1.12a4.15,4.15,0,0,1-2.37.64,25.78,25.78,0,0,1-3-.18,33.69,33.69,0,0,0-3.8-.18c-1.51,0-2.26.38-2.26,1.13,0,.24.2.54.6.92s3.17,2.29,8.32,5.74,8.28,5.46,9.41,6a29.24,29.24,0,0,0,5.6,1.73,28.74,28.74,0,0,0,6,.92,3.14,3.14,0,0,0,1.41-.32,2.47,2.47,0,0,1,1-.32Q62.24,32.56,62.24,32.77ZM53.92,10a4,4,0,0,1-1.69,2.75,5.36,5.36,0,0,0-1.09,1.48,4.67,4.67,0,0,1-1.52,1.65,3,3,0,0,1-1.48.6c-.56,0-.85-.17-.85-.53a5.84,5.84,0,0,1,.46-1.72,5.58,5.58,0,0,0,.46-1.66c0-.3-.19-.52-.56-.63a40.66,40.66,0,0,0-4.9-.43c-2.89-.16-6.08-.24-9.55-.24a98.89,98.89,0,0,0-10.72.6,52.37,52.37,0,0,0-8.84,1.58,28.61,28.61,0,0,0-4.05,1.38,3.8,3.8,0,0,0-1.34,2,9.6,9.6,0,0,1-1.06,2.11,1.59,1.59,0,0,1-1.34.53c-.61,0-1-.09-1.06-.28a4.92,4.92,0,0,1-.14-1.55c0-.85-.05-1.75-.14-2.71a6,6,0,0,0-.28-1.66,3.62,3.62,0,0,1-1-1.69c0-.33.3-.64.88-.92a5.27,5.27,0,0,1,2.26-.42,7.22,7.22,0,0,1,2.92.7,4.68,4.68,0,0,0,1.13.08,12.29,12.29,0,0,0,2.64-.43c1.16-.28,3.56-.65,7.23-1.13C22,9.21,23,8.82,23.4,8.28a3.4,3.4,0,0,0,.56-2,9.1,9.1,0,0,0-.59-2.43,9,9,0,0,1-.6-2.78c0-.71.37-1.06,1.12-1.06a2.53,2.53,0,0,1,2,1.13,5,5,0,0,0,1.34,1.34,2.38,2.38,0,0,0,1,.21,11.68,11.68,0,0,0,1.23-.07A64.41,64.41,0,0,1,38.52,2a34.55,34.55,0,0,1,7.75.74c2.09.5,3.14,1,3.14,1.45q0,.34-.81,1a3.79,3.79,0,0,1-2.47.67,8,8,0,0,1-2.39-.25,4.73,4.73,0,0,0-1.45-.24,4.21,4.21,0,0,0-1.2.14,11.57,11.57,0,0,1-2.32.14,24.83,24.83,0,0,1-2.93-.14c-.73-.1-1.16-.14-1.3-.14a14.36,14.36,0,0,0-3.81.7q-2.4.71-2.4,1.62a.69.69,0,0,0,.32.67A3.32,3.32,0,0,0,30,8.53l4.79-.07q3.87,0,7.22.24a23.28,23.28,0,0,1,4.3.57,6.74,6.74,0,0,0,2.12.32,8.61,8.61,0,0,0,2.46-.39,8.29,8.29,0,0,1,1.66-.39C53.47,8.81,53.92,9.21,53.92,10ZM16.63,21a.91.91,0,0,1,.71.32,1,1,0,0,1,.28.67c0,.56-1.06,1.59-3.17,3.07s-3.63,2.22-4.55,2.22-1.37-1-1.37-2.89a1.92,1.92,0,0,1,.35-1.34c.24-.24.43-.33.6-.28a1.8,1.8,0,0,0,.39.07,5.26,5.26,0,0,0,1.23-.25,4.33,4.33,0,0,0,1.09-.39,3.9,3.9,0,0,1,2.05-.56,3.57,3.57,0,0,0,1.69-.32A2.37,2.37,0,0,1,16.63,21ZM20.3,44.69c.37,0,1,0,1.83-.14q4.94-.49,11.07-.5a6.23,6.23,0,0,0,2.15-.21c.26-.14.39-.5.39-1.09s-.22-.94-.64-1.06a26.34,26.34,0,0,0-4.23-.17,64.32,64.32,0,0,0-7,.38,18.45,18.45,0,0,0-4.05.71,1,1,0,0,0-.64,1,1.34,1.34,0,0,0,.21.89A1.38,1.38,0,0,0,20.3,44.69Zm13-6.77a5.75,5.75,0,0,0,1.87-.21c.35-.14.53-.51.53-1.09s-.18-.94-.53-1.06a21,21,0,0,0-3.85-.18,57.37,57.37,0,0,0-7,.46,16.44,16.44,0,0,0-4.37.88A1.37,1.37,0,0,0,19.24,38q0,.81.78.81a17,17,0,0,0,2.68-.36A27.17,27.17,0,0,1,26.54,38Q28.48,37.91,33.27,37.92Zm.63-6.06a3.17,3.17,0,0,0,1.66-.28,1.15,1.15,0,0,0,.39-1c0-.47-.12-.78-.36-.92A4.35,4.35,0,0,0,34,29.36c-.8-.07-2.08-.11-3.84-.11a42.53,42.53,0,0,0-5.92.46,13.28,13.28,0,0,0-3.8.84A1.34,1.34,0,0,0,20,31.72c0,.52.23.77.7.77a7.78,7.78,0,0,0,1.48-.14,52.57,52.57,0,0,1,8.11-.56Zm-.63-6.42c0-.14-.37-.51-1.09-1.12S30.59,23,29.6,22.1a4.29,4.29,0,0,0-2.15-1.31c-.44,0-1,.44-1.58,1.31a25.14,25.14,0,0,1-2.75,3.13.76.76,0,0,0-.28.46c0,.12.17.18.53.18s1.05-.05,2.11-.14,2.24-.14,3.56-.14l3.45.14C33,25.73,33.27,25.63,33.27,25.44Zm12.26-4.93A8.15,8.15,0,0,1,45,24a1.72,1.72,0,0,1-1.66.92c-.77,0-1.86-.71-3.27-2.15S38,20.44,38,20.16s.21-.42.64-.42l1.9.21a16.88,16.88,0,0,0,2.75-.21L45,19.52C45.37,19.52,45.53,19.85,45.53,20.51Z"/><path class="cls-1" d="M133.5,35.59c0,.47-.72,2.11-2.15,4.9A23.14,23.14,0,0,1,126.7,47a8.07,8.07,0,0,1-5.54,2.29,13.53,13.53,0,0,1-6.69-2.08,48.13,48.13,0,0,0-6.7-3.28,42.14,42.14,0,0,0-6.2-1.87,25.74,25.74,0,0,0-5.15-.67H93.11c-1.65,0-2.71-.27-3.21-.81s-.74-1.79-.74-3.77q0-5.28,3.46-17.2a8.09,8.09,0,0,0,.42-2,.77.77,0,0,0-.67-.78,8.54,8.54,0,0,0-2-.18,1.49,1.49,0,0,0-1.66,1.13A77.75,77.75,0,0,1,84.3,30.34a44.42,44.42,0,0,1-4.55,8.36,15.38,15.38,0,0,1-3.84,3.63,6.57,6.57,0,0,1-3.17,1.23q-1,0-1-2a22.79,22.79,0,0,1,.74-6.14c.5-1.73,1.19-2.46,2.08-2.18a1.07,1.07,0,0,0,.35.07c.52,0,1.35-.85,2.51-2.54a51,51,0,0,0,3.77-6.94c1.36-2.94,2-4.65,2-5.15s-.26-.64-.77-.46a16.13,16.13,0,0,1-4.87,1.06A2.69,2.69,0,0,1,75,17.59a6.89,6.89,0,0,1-.81-3,7.72,7.72,0,0,1,1.06-3.35c.7-1.36,1.2-2,1.48-2a1,1,0,0,1,.7.29,1.7,1.7,0,0,0,1.13.28,14.52,14.52,0,0,0,2.85-.46,25.37,25.37,0,0,1,3.92-.6c.65-.05,1.09-.5,1.3-1.37A13.22,13.22,0,0,0,87,4.3a4.67,4.67,0,0,0-.14-1.16,3.8,3.8,0,0,1-.14-1q0-1,1.23-1a4.36,4.36,0,0,1,2.25.6c.69.4,1,1.32,1,2.78L91,7.26a1,1,0,0,0,.24.7.86.86,0,0,0,.67.29,22.71,22.71,0,0,1,3.63.24,13.47,13.47,0,0,0,2.12.25A2.83,2.83,0,0,0,99,8.35a2.6,2.6,0,0,1,1.2-.39q.84,0,.84,1a9,9,0,0,1-.42,2.43,31.78,31.78,0,0,1-2.22,4.9,34.3,34.3,0,0,0-2.82,7.51,30,30,0,0,0-1,7.22q0,5.29,5,5.29a9.34,9.34,0,0,0,1.52-.14A8.69,8.69,0,0,1,102.7,36q2.74,0,7.61,2.25a21.88,21.88,0,0,0,9.23,2.26,9.93,9.93,0,0,0,4.12-.78,19.37,19.37,0,0,1,2.79-1,23.89,23.89,0,0,1,2.68-.53A5.06,5.06,0,0,0,132,36.69a7.24,7.24,0,0,1,1.38-1.24A.13.13,0,0,1,133.5,35.59ZM131.81,8.88a6.59,6.59,0,0,1-.43,2.12,3.32,3.32,0,0,1-1.3,1.76A5.74,5.74,0,0,0,128.32,15a25.89,25.89,0,0,0-1.77,6.21c-.58,3-1,5.46-1.19,7.36a8.22,8.22,0,0,1-1,3.7,2.31,2.31,0,0,1-1.94.85,21.31,21.31,0,0,1-4-.6,25.51,25.51,0,0,0-5.46-.6c-1.81,0-3.23.05-4.26.14s-1.9.14-2.58.14a9.12,9.12,0,0,1-2.18-.28,4.27,4.27,0,0,0-1.66-.18,4.41,4.41,0,0,1-.91.11c-1.41,0-2.12-.38-2.12-1.13a1.24,1.24,0,0,1,.57-1c.94-.7,2-3,3.17-7a37.35,37.35,0,0,0,1.76-10.32l-.07-2.75a9.44,9.44,0,0,1,.35-3,1.38,1.38,0,0,1,1.41-1,6.9,6.9,0,0,1,2.47.56,2.6,2.6,0,0,0,.67.07,4.59,4.59,0,0,0,.81-.07,31.75,31.75,0,0,1,8.25-1.2,62.32,62.32,0,0,1,7.75.5q3.94.5,4.69,1.37A3,3,0,0,1,131.81,8.88ZM107.42,27.35l3.91-.21c2.51-.14,5.58-.22,9.2-.22a1.12,1.12,0,0,0,.84-.28,1.82,1.82,0,0,0,.36-1.12l.14-2.05a1,1,0,0,0-.25-.74,4.86,4.86,0,0,0-1.9-.49A25.07,25.07,0,0,0,116,22a21.35,21.35,0,0,0-5.32.85c-2.14.56-3.28,1.2-3.42,1.9a6.37,6.37,0,0,1-.29,1.23,3.78,3.78,0,0,0-.21,1C106.71,27.23,107,27.35,107.42,27.35Zm3-10.15h.21A68.61,68.61,0,0,1,122,16.28c.56,0,1-.37,1.23-1.13a5.75,5.75,0,0,0,.39-1.65c0-.35-.28-.61-.85-.78a16.5,16.5,0,0,0-3.59-.24,40.81,40.81,0,0,0-5.43.35,15.81,15.81,0,0,0-3.21.6,1.68,1.68,0,0,0-.81,1.05,4.86,4.86,0,0,0-.28,1.52C109.46,16.8,109.77,17.2,110.38,17.2Z"/></svg>