<svg id="圖層_1" data-name="圖層 1" xmlns="http://www.w3.org/2000/svg" viewBox="0 0 166.11 81.12"><defs><style>.cls-1{fill:#fff;}</style></defs><path class="cls-1" d="M14.14,17.69c0,6-2.68,10-6,11.65-3,1.56-6.9.69-7.94-2.5-.95-3,1-5.35,3.63-6.56,3.45-1.29,7.5-5.26,7.76-10h1.21A21.85,21.85,0,0,1,14,15.19H33.73V.09l13,1c-.09,1.21-.78,2.07-3.11,2.42V7.42H55.13l4.92-6.13s5.61,4.23,9.15,7.25c-.26,1-1.21,1.38-2.42,1.38H43.65v5.27H65.57L70.75,10l8.89,8.54c-.69.7-1.55.87-3.37.95a61.94,61.94,0,0,1-12.08,7.43l-.86-.61A67.65,67.65,0,0,0,66,17.69H52.88c1.56,1.12,5.36,3.8,7.86,6-.17.95-1.12,1.38-2.33,1.38H20.78l-.69-2.5H47.53l4.15-4.92ZM46.41,30.55c-.26,1.12-1.21,1.64-3.88,2C50.47,40.39,65,45.83,79.64,47.9v1.29c-3.8,1.38-5.52,5.18-6.22,8.63a64.64,64.64,0,0,1-12.16-5.26V77.67c-.09.61-5,2.42-8.29,2.42H51.33V75.43H27.43v2.76c0,.69-3,2.85-7.94,2.85H17.85V52.56A82.08,82.08,0,0,1,.67,59.38L.24,58.25C15.52,51.18,28.38,38.32,33.29,27ZM7.06,41.34a50,50,0,0,0,13-15.79l9.67,5.52c-.52.86-1.21,1.29-3.11.86A51.21,51.21,0,0,1,7.92,42.37Zm44.88,4.92A49.29,49.29,0,0,1,41.23,33.4,60.15,60.15,0,0,1,26.74,47.12l1.81.69h22ZM51.33,56V50.23H27.43V56Zm-23.9,8.28h23.9V58.51H27.43Zm23.9,8.63V66.8H27.43v6.12ZM48.48,27.44c24.34.35,21.67,17,12.69,13.73-2.68-4.49-8.89-10-13.46-13Z"/><path class="cls-1" d="M161.54,67.4c3.45,1.12,4.57,2.24,4.57,4.14,0,4.66-4.66,6.3-26.84,6.3H124.86c-11.31,0-15.36-1.55-15.36-9.92V23.47h-5.35c-.26,25.38-2.33,44.36-18.82,57.65l-1.12-1.29C93.7,65.59,94.82,47.38,94.74,23.47H85.85l-.78-2.41h9.67c0-6.56-.09-13.64-.09-21.06l12.86,1.21c-.26,1.38-1.21,2.16-3.19,2.41-.09,6.13-.09,11.91-.09,17.44h4.23l4.83-5.44,9.32,7.51c-.51.69-1.72,1.29-3.62,1.47V65.67c0,2.42,1.21,3.11,6.39,3.11h14.67c5.35,0,10.09-.08,12.17-.26a5.52,5.52,0,0,0,3.62-1.2c1.12-1.3,2.59-4.41,4.4-9.24h.95Zm-26-7.16c0,1-3.88,3.28-8.11,3.28h-1.56V3.37L136,7.51h12l4.74-5.18,9.5,7.51a6.45,6.45,0,0,1-3.54,1.81V58.77c-.17.69-4.75,2.76-8.2,2.76h-1.64V56.44H135.56Zm0-50.23V30.12h13.29V10Zm13.29,43.93V32.54H135.56v21.4Z"/></svg>